<svg xmlns="http://www.w3.org/2000/svg" viewBox="0 0 32 32">
  <!-- Dark card background -->
  <rect width="32" height="32" rx="7" fill="#0c0e1c"/>
  <!-- Subtle orange border -->
  <rect width="32" height="32" rx="7" fill="none" stroke="#ff5722" stroke-width="1.5" stroke-opacity="0.45"/>
  <!-- Orange tint fill behind icon -->
  <rect x="6" y="6" width="20" height="20" rx="4" fill="#ff5722" fill-opacity="0.12"/>
  <!-- Lucide Truck icon, scaled to 20×20, offset (6,6) -->
  <g transform="translate(6,6) scale(0.833)" stroke="#ff5722" stroke-width="2" stroke-linecap="round" stroke-linejoin="round" fill="none">
    <path d="M14 18V6a2 2 0 0 0-2-2H4a2 2 0 0 0-2 2v11a1 1 0 0 0 1 1h2"/>
    <path d="M15 18H9"/>
    <path d="M19 18h2a1 1 0 0 0 1-1v-3.65a1 1 0 0 0-.22-.624l-3.48-4.35A1 1 0 0 0 17.52 8H14"/>
    <circle cx="17" cy="18" r="2"/>
    <circle cx="7" cy="18" r="2"/>
  </g>
</svg>
